<svg xmlns="http://www.w3.org/2000/svg" viewBox="0 0 24 24" width="24" height="24" fill="none">
  <!-- Papyrus background with aged texture -->
  <rect x="2" y="3" width="20" height="18" rx="1" fill="#f4f1e8" stroke="#d4c19f" stroke-width="1"/>
  
  <!-- Papyrus torn top edge -->
  <path d="M2 3 L3 2 L4 3 L5 2 L6 3 L7 2 L8 3 L9 2 L10 3 L11 2 L12 3 L13 2 L14 3 L15 2 L16 3 L17 2 L18 3 L19 2 L20 3 L21 2 L22 3" 
        fill="none" stroke="#d4c19f" stroke-width="1"/>
  
  <!-- Papyrus torn bottom edge -->
  <path d="M2 21 L3 22 L4 21 L5 22 L6 21 L7 22 L8 21 L9 22 L10 21 L11 22 L12 21 L13 22 L14 21 L15 22 L16 21 L17 22 L18 21 L19 22 L20 21 L21 22 L22 21" 
        fill="none" stroke="#d4c19f" stroke-width="1"/>
  
  <!-- Left scroll curl -->
  <path d="M2 3 Q1 4 2 5 Q3 6 2 7 Q1 8 2 9 Q3 10 2 11 Q1 12 2 13 Q3 14 2 15 Q1 16 2 17 Q3 18 2 19 Q1 20 2 21" 
        fill="#e8e0d0" stroke="#c4a575" stroke-width="1"/>
  
  <!-- Right scroll curl -->
  <path d="M22 3 Q23 4 22 5 Q21 6 22 7 Q23 8 22 9 Q21 10 22 11 Q23 12 22 13 Q21 14 22 15 Q23 16 22 17 Q21 18 22 19 Q23 20 22 21" 
        fill="#e8e0d0" stroke="#c4a575" stroke-width="1"/>
  
  <!-- Ancient text lines -->
  <line x1="5" y1="7" x2="19" y2="7" stroke="#8b6914" stroke-width="0.8" opacity="0.7"/>
  <line x1="5" y1="9" x2="18" y2="9" stroke="#8b6914" stroke-width="0.8" opacity="0.7"/>
  <line x1="5" y1="11" x2="19" y2="11" stroke="#8b6914" stroke-width="0.8" opacity="0.7"/>
  <line x1="5" y1="13" x2="16" y2="13" stroke="#8b6914" stroke-width="0.8" opacity="0.7"/>
  <line x1="5" y1="15" x2="17" y2="15" stroke="#8b6914" stroke-width="0.8" opacity="0.7"/>
  <line x1="5" y1="17" x2="14" y2="17" stroke="#8b6914" stroke-width="0.8" opacity="0.7"/>
  
  <!-- Ancient seal/symbol -->
  <circle cx="18" cy="18" r="1.5" fill="none" stroke="#b91c1c" stroke-width="1" opacity="0.8"/>
  <path d="M17.2 18 L18 17.2 L18.8 18 L18 18.8 Z" fill="#b91c1c" opacity="0.8"/>
  
  <!-- Aging spots -->
  <circle cx="7" cy="5" r="0.3" fill="#d4c19f" opacity="0.6"/>
  <circle cx="15" cy="19" r="0.2" fill="#d4c19f" opacity="0.6"/>
  <circle cx="9" cy="18" r="0.25" fill="#d4c19f" opacity="0.6"/>
</svg>