<?xml version="1.0" encoding="utf-8"?>
<!-- Uploaded to: SVG Repo, www.svgrepo.com, Generator: SVG Repo Mixer Tools -->
<svg fill="#000000" width="800px" height="800px" viewBox="0 0 32 32" version="1.1" xmlns="http://www.w3.org/2000/svg">
<title>googlesheets</title>
<path d="M15.15 18.379h-4.247v2.38h4.25v-2.38zM22.797 12.601h-13.596v9.857h13.597v-9.858zM26.876 9.145v19.771c0 0 0 0 0 0.001 0 1.126-0.913 2.038-2.038 2.038-0 0-0.001 0-0.001 0h-17.675c0 0 0 0-0 0-1.126 0-2.039-0.913-2.039-2.039 0 0 0 0 0-0v0-25.833c0-0 0-0 0-0.001 0-1.126 0.913-2.038 2.038-2.038 0 0 0.001 0 0.001 0h11.613v8.101zM21.099 18.379h-4.25v2.38h4.25zM21.099 14.3h-4.25v2.38h4.25zM19.4 1.045v7.478h7.478zM15.15 16.679h-4.247v-2.379h4.25v2.38z"></path>
</svg>