<svg xmlns="http://www.w3.org/2000/svg" viewBox="0 0 24 24" width="24" height="24" fill="none">
  <!-- Document base -->
  <rect x="4" y="2" width="16" height="20" rx="1" fill="#faf8f5" stroke="#d4c19f" stroke-width="1.5"/>
  
  <!-- Papyrus texture lines -->
  <path d="M4 4 Q12 3.5 20 4" stroke="#e8dcc0" stroke-width="0.5" opacity="0.6"/>
  <path d="M4 6 Q12 5.5 20 6" stroke="#e8dcc0" stroke-width="0.5" opacity="0.6"/>
  <path d="M4 8 Q12 7.5 20 8" stroke="#e8dcc0" stroke-width="0.5" opacity="0.6"/>
  <path d="M4 10 Q12 9.5 20 10" stroke="#e8dcc0" stroke-width="0.5" opacity="0.6"/>
  <path d="M4 12 Q12 11.5 20 12" stroke="#e8dcc0" stroke-width="0.5" opacity="0.6"/>
  <path d="M4 14 Q12 13.5 20 14" stroke="#e8dcc0" stroke-width="0.5" opacity="0.6"/>
  <path d="M4 16 Q12 15.5 20 16" stroke="#e8dcc0" stroke-width="0.5" opacity="0.6"/>
  <path d="M4 18 Q12 17.5 20 18" stroke="#e8dcc0" stroke-width="0.5" opacity="0.6"/>
  <path d="M4 20 Q12 19.5 20 20" stroke="#e8dcc0" stroke-width="0.5" opacity="0.6"/>
  
  <!-- Document folded corner -->
  <path d="M17 2 L20 2 L20 5 Z" fill="#f0ead6" stroke="#d4c19f" stroke-width="1"/>
  <path d="M17 2 L17 5 L20 5" fill="none" stroke="#d4c19f" stroke-width="1"/>
  
  <!-- Text content -->
  <rect x="6" y="5" width="10" height="1.5" fill="#8b6914" opacity="0.3" rx="0.2"/>
  <line x1="6" y1="9" x2="16" y2="9" stroke="#8b6914" stroke-width="1" opacity="0.6"/>
  <line x1="6" y1="11" x2="15" y2="11" stroke="#8b6914" stroke-width="1" opacity="0.6"/>
  <line x1="6" y1="13" x2="17" y2="13" stroke="#8b6914" stroke-width="1" opacity="0.6"/>
  <line x1="6" y1="15" x2="14" y2="15" stroke="#8b6914" stroke-width="1" opacity="0.6"/>
  <line x1="6" y1="17" x2="16" y2="17" stroke="#8b6914" stroke-width="1" opacity="0.6"/>
  
  <!-- Wax seal -->
  <circle cx="9" cy="19" r="1.8" fill="#dc2626" opacity="0.8"/>
  <circle cx="9" cy="19" r="1.3" fill="#b91c1c" opacity="0.9"/>
  <text x="9" y="19.5" text-anchor="middle" font-size="8" font-weight="bold" fill="#faf8f5">H</text>
  
  <!-- Aging details -->
  <circle cx="14" cy="6" r="0.3" fill="#d4c19f" opacity="0.4"/>
  <circle cx="7" cy="20" r="0.2" fill="#d4c19f" opacity="0.4"/>
  <circle cx="18" cy="14" r="0.25" fill="#d4c19f" opacity="0.4"/>
</svg>