<svg xmlns="http://www.w3.org/2000/svg" viewBox="0 0 24 24" width="24" height="24" fill="none" stroke="currentColor" stroke-width="2" stroke-linecap="round" stroke-linejoin="round">
  <!-- Background paper -->
  <rect x="3" y="2" width="18" height="20" rx="2" ry="2" fill="#f8f8f8" stroke="#d4d4d4"/>
  
  <!-- Top torn edge -->
  <path d="M3 4 L5 3 L7 4 L9 3 L11 4 L13 3 L15 4 L17 3 L19 4 L21 3 V2 H3 Z" fill="#f8f8f8" stroke="#d4d4d4"/>
  
  <!-- Document lines -->
  <line x1="6" y1="8" x2="18" y2="8" stroke="#666" stroke-width="1"/>
  <line x1="6" y1="11" x2="18" y2="11" stroke="#666" stroke-width="1"/>
  <line x1="6" y1="14" x2="15" y2="14" stroke="#666" stroke-width="1"/>
  <line x1="6" y1="17" x2="17" y2="17" stroke="#666" stroke-width="1"/>
  
  <!-- Document title area -->
  <rect x="6" y="5" width="8" height="2" fill="#2563eb" opacity="0.2"/>
  
  <!-- Papyrus scroll effect on edges -->
  <path d="M2 2 Q3 1 4 2 V22 Q3 23 2 22 Z" fill="#e5e5e5" stroke="#b5b5b5"/>
  <path d="M22 2 Q21 1 20 2 V22 Q21 23 22 22 Z" fill="#e5e5e5" stroke="#b5b5b5"/>
  
  <!-- Vintage document stamp -->
  <circle cx="16" cy="19" r="2" fill="none" stroke="#dc2626" stroke-width="1" opacity="0.6"/>
  <text x="16" y="19.5" text-anchor="middle" font-size="8" fill="#dc2626" opacity="0.6">?</text>
</svg>